<svg class="lds-spinner" width="52px"  height="52px"  xmlns="http://www.w3.org/2000/svg" xmlns:xlink="http://www.w3.org/1999/xlink" viewBox="0 0 100 100" preserveAspectRatio="xMidYMid" style="background: none;"><g transform="rotate(0 50 50)">
  <rect x="46.5" y="5" rx="17.205000000000002" ry="1.85" width="7" height="30" fill="#242424">
    <animate attributeName="opacity" values="1;0" keyTimes="0;1" dur="1.5s" begin="-1.4s" repeatCount="indefinite"></animate>
  </rect>
</g><g transform="rotate(24 50 50)">
  <rect x="46.5" y="5" rx="17.205000000000002" ry="1.85" width="7" height="30" fill="#242424">
    <animate attributeName="opacity" values="1;0" keyTimes="0;1" dur="1.5s" begin="-1.3s" repeatCount="indefinite"></animate>
  </rect>
</g><g transform="rotate(48 50 50)">
  <rect x="46.5" y="5" rx="17.205000000000002" ry="1.85" width="7" height="30" fill="#242424">
    <animate attributeName="opacity" values="1;0" keyTimes="0;1" dur="1.5s" begin="-1.2s" repeatCount="indefinite"></animate>
  </rect>
</g><g transform="rotate(72 50 50)">
  <rect x="46.5" y="5" rx="17.205000000000002" ry="1.85" width="7" height="30" fill="#242424">
    <animate attributeName="opacity" values="1;0" keyTimes="0;1" dur="1.5s" begin="-1.1s" repeatCount="indefinite"></animate>
  </rect>
</g><g transform="rotate(96 50 50)">
  <rect x="46.5" y="5" rx="17.205000000000002" ry="1.85" width="7" height="30" fill="#242424">
    <animate attributeName="opacity" values="1;0" keyTimes="0;1" dur="1.5s" begin="-1s" repeatCount="indefinite"></animate>
  </rect>
</g><g transform="rotate(120 50 50)">
  <rect x="46.5" y="5" rx="17.205000000000002" ry="1.85" width="7" height="30" fill="#242424">
    <animate attributeName="opacity" values="1;0" keyTimes="0;1" dur="1.5s" begin="-0.9s" repeatCount="indefinite"></animate>
  </rect>
</g><g transform="rotate(144 50 50)">
  <rect x="46.5" y="5" rx="17.205000000000002" ry="1.85" width="7" height="30" fill="#242424">
    <animate attributeName="opacity" values="1;0" keyTimes="0;1" dur="1.5s" begin="-0.8s" repeatCount="indefinite"></animate>
  </rect>
</g><g transform="rotate(168 50 50)">
  <rect x="46.5" y="5" rx="17.205000000000002" ry="1.85" width="7" height="30" fill="#242424">
    <animate attributeName="opacity" values="1;0" keyTimes="0;1" dur="1.5s" begin="-0.7s" repeatCount="indefinite"></animate>
  </rect>
</g><g transform="rotate(192 50 50)">
  <rect x="46.5" y="5" rx="17.205000000000002" ry="1.85" width="7" height="30" fill="#242424">
    <animate attributeName="opacity" values="1;0" keyTimes="0;1" dur="1.5s" begin="-0.6s" repeatCount="indefinite"></animate>
  </rect>
</g><g transform="rotate(216 50 50)">
  <rect x="46.5" y="5" rx="17.205000000000002" ry="1.85" width="7" height="30" fill="#242424">
    <animate attributeName="opacity" values="1;0" keyTimes="0;1" dur="1.5s" begin="-0.5s" repeatCount="indefinite"></animate>
  </rect>
</g><g transform="rotate(240 50 50)">
  <rect x="46.5" y="5" rx="17.205000000000002" ry="1.85" width="7" height="30" fill="#242424">
    <animate attributeName="opacity" values="1;0" keyTimes="0;1" dur="1.5s" begin="-0.4s" repeatCount="indefinite"></animate>
  </rect>
</g><g transform="rotate(264 50 50)">
  <rect x="46.5" y="5" rx="17.205000000000002" ry="1.85" width="7" height="30" fill="#242424">
    <animate attributeName="opacity" values="1;0" keyTimes="0;1" dur="1.5s" begin="-0.3s" repeatCount="indefinite"></animate>
  </rect>
</g><g transform="rotate(288 50 50)">
  <rect x="46.5" y="5" rx="17.205000000000002" ry="1.85" width="7" height="30" fill="#242424">
    <animate attributeName="opacity" values="1;0" keyTimes="0;1" dur="1.5s" begin="-0.2s" repeatCount="indefinite"></animate>
  </rect>
</g><g transform="rotate(312 50 50)">
  <rect x="46.5" y="5" rx="17.205000000000002" ry="1.85" width="7" height="30" fill="#242424">
    <animate attributeName="opacity" values="1;0" keyTimes="0;1" dur="1.5s" begin="-0.1s" repeatCount="indefinite"></animate>
  </rect>
</g><g transform="rotate(336 50 50)">
  <rect x="46.5" y="5" rx="17.205000000000002" ry="1.85" width="7" height="30" fill="#242424">
    <animate attributeName="opacity" values="1;0" keyTimes="0;1" dur="1.5s" begin="0s" repeatCount="indefinite"></animate>
  </rect>
</g></svg>