<?xml version="1.0" encoding="UTF-8"?>
<!-- Generator: Adobe Illustrator 22.1.0, SVG Export Plug-In . SVG Version: 6.00 Build 0)  -->
<svg version="1.1" id="Layer_1" xmlns="http://www.w3.org/2000/svg" xmlns:xlink="http://www.w3.org/1999/xlink" x="0px" y="0px" viewBox="0 0 282 51.3" style="enable-background:new 0 0 282 51.3;" xml:space="preserve">
<style type="text/css">
	.st0{fill:#0B6D78;}
	.st1{fill:#01C689;}
</style>
		<path class="st0" d="M136.5,1.2c8.8,0,15.1,5.1,15.1,13.1c0,3.5-1.2,6.5-3.8,8.3c4.5,2.3,7.2,6.3,7.2,12.3    c0,8.4-6.8,15.2-16.1,15.2H105V1.2H136.5z M116.1,20h20.8c2.4,0,4-2.2,4-4.4c0-2.1-1.1-4.5-4.9-4.5h-19.9V20z M116.1,40h22.4    c3.5,0,5.7-2.2,5.7-5.2c0-3.2-2.2-5.2-5.4-5.2h-22.7V40z"/>
		<path class="st0" d="M171.5,1.2V50h-11V1.2H171.5z"/>
		<path class="st0" d="M227.8,1.2v9.9h-19.9V50h-11V11.1H177V1.2H227.8z"/>
		<path class="st0" d="M275.3,15.4c-5.7-4-11.6-5.6-19.3-5.6c-9.5,0-11.8,2.5-11.8,5.2c0,2.8,2.6,3.5,6.4,4l14.7,1.7    c10.4,1.2,16.9,5.7,16.9,14.7c0,10.9-10.7,15.9-25.3,15.9c-10,0-17.5-2.1-25.3-7.9l5.2-8.6c6.7,4.7,13.2,6.8,21.3,6.8    c7.8,0,13.4-1.9,13.4-6.1c0-2.6-1.4-4-5.6-4.4l-16.4-1.9c-10-1.1-16.1-5-16.1-14.1C233.3,4.8,243.5,0,256,0c9.1,0,17,1.6,24.6,7.2    L275.3,15.4z"/>

	<path class="st1" d="M76.6,24.5c3.2-1.8,5.4-5.8,5.4-8.8C82,4.1,72.7,0,57.4,0H22.8C7.4,0.3,0,11.1,0,25.6   c0,13.5,6.8,25.6,22.8,25.6h35.7c18.5,0,25.1-6.8,25.1-16.4C83.5,29.5,81.2,26.6,76.6,24.5z M24.4,41.6c-7.7,0-12.9-4-13.6-12.1   c0.6,0,8.3-0.6,14.5-0.6c8.7,0,12.1,1.5,12.1,6.1S32.3,41.6,24.4,41.6z M57.9,41.6H44.4c0,0,3.7-2.2,3.7-7.7   c0-10.6-10-14.8-21.6-14.8c-4.1,0-14,1.1-15.6,1.3l0-0.2c0.9-6.1,4.2-10.6,12.2-10.6c0,0,35.9,0,36.4,0c8.2,0,11.4,2.3,11.4,6   c0,2.6-1.2,4.6-5.7,4.6H55.1v9.4h9.6c5.4,0,7.8,2.2,7.8,5.7C72.5,40.9,67.8,41.6,57.9,41.6z"/>
</svg>