<?xml version="1.0" encoding="utf-8"?>
<!-- Generator: Adobe Illustrator 26.0.2, SVG Export Plug-In . SVG Version: 6.00 Build 0)  -->
<svg version="1.1" id="Layer_1" xmlns="http://www.w3.org/2000/svg" xmlns:xlink="http://www.w3.org/1999/xlink" x="0px" y="0px"
	 viewBox="0 0 84.1 51.3" style="enable-background:new 0 0 84.1 51.3;" xml:space="preserve">
<style type="text/css">
	.st0{fill:#01C689;}
</style>
<path class="st0" d="M76.8,24.5c3.2-1.8,5.4-5.8,5.4-8.8C82.2,4.1,72.9,0,57.6,0H23C7.6,0.3,0.2,11.1,0.2,25.6
	C0.2,39.1,7,51.2,23,51.2h35.7c18.5,0,25.1-6.8,25.1-16.4C83.7,29.5,81.4,26.6,76.8,24.5z M24.6,41.6c-7.7,0-12.9-4-13.6-12.1
	c0.6,0,8.3-0.6,14.5-0.6c8.7,0,12.1,1.5,12.1,6.1S32.5,41.6,24.6,41.6z M58.1,41.6H44.6c0,0,3.7-2.2,3.7-7.7
	c0-10.6-10-14.8-21.6-14.8c-4.1,0-14,1.1-15.6,1.3v-0.2C12,14.1,15.3,9.6,23.3,9.6c0,0,35.9,0,36.4,0c8.2,0,11.4,2.3,11.4,6
	c0,2.6-1.2,4.6-5.7,4.6H55.3v9.4h9.6c5.4,0,7.8,2.2,7.8,5.7C72.7,40.9,68,41.6,58.1,41.6z"/>
</svg>
