<?xml version="1.0" ?><svg id="Layer_1" style="enable-background:new 0 0 242.9 242.9;" version="1.1" viewBox="0 0 242.9 242.9" xml:space="preserve" xmlns="http://www.w3.org/2000/svg" xmlns:xlink="http://www.w3.org/1999/xlink"><style type="text/css">
	.st0{fill:#B62025;}
</style><path class="st0" d="M133.5,133.7c1.8,1.5,3.8,3,5.8,4.4c-14.9,2.8-30.6,6.7-45.1,12.8c2.6-4.7,5.5-9.8,8.4-15.3  c5.6-10.7,9.1-18.9,11.9-26.7C119,118.1,125.3,126.8,133.5,133.7z M242.9,0v242.9H0V0H242.9z M190.9,143.2c-0.2-1.7-0.7-3.2-1.9-4.4  c-2.6-2.5-8.9-3.8-17.6-3.9c-6.5-0.1-14.3,0.5-22.8,1.7c-3.9-2.2-8-4.7-11.3-7.7c-8.3-7.7-15.2-18.4-19.5-30.4  c0.3-1.2,0.6-2.3,0.8-3.4c1.2-5.4,2-23.1,2-23.1s-3.4,13.3-3.9,15.3c-0.3,1.3-0.8,2.6-1.3,4.1c-2.6-9.2-3.9-18-3.9-24.8  c0-1.9,0.2-5.6,0.7-8.5c0.3-2.1,1-3.2,1.8-3.7c1.6,0.4,3.3,2.8,5.1,6.7c1.6,3.4,1.5,7.4,1.5,9.9c0,0,1.7-6.1,1.3-9.7  c-0.2-2.2-2.3-7.8-6.7-7.7h-0.4l-2,0c-3.2,0-6.2,1.6-6.9,4.2c-2.7,9.9,0.3,25.3,5.3,44.4l-1.5,3.7c-3.8,9.4-8.7,18.7-12.9,27h0  c-17.5,34.2-31,52.6-40.1,53.9l0-0.4c-0.2-4.3,7.7-15.3,18.3-24c1.1-0.9,5.9-5.5,5.9-5.5s-6.4,3.4-7.8,4.3c-13.4,8-20,16-21.1,21.3  c-0.3,1.6-0.1,3.5,1.3,4.3l3.4,1.7c9.3,4.7,20.7-7.6,35.9-34.2c15.5-5.1,34.8-9.9,52.3-12.4c15.7,9,33.8,13.3,40.7,11.4  c1.3-0.3,2.7-1.4,3.4-2.3c0.6-0.9,1.3-4.4,1.3-4.4s-1.3,1.8-2.4,2.3c-4.4,2.1-18.2-1.4-32.5-8.3c12.3-1.3,22.5-1.4,28,0.4  c6.9,2.2,6.9,4.5,6.9,5C190.7,145.4,191,143.8,190.9,143.2z"/></svg>