<?xml version="1.0" standalone="no"?>
<!DOCTYPE svg PUBLIC "-//W3C//DTD SVG 1.1//EN" "http://www.w3.org/Graphics/SVG/1.1/DTD/svg11.dtd" >
<svg xmlns="http://www.w3.org/2000/svg" xmlns:xlink="http://www.w3.org/1999/xlink" version="1.1">
<metadata></metadata>
<defs>
<font id="63fontmt-bold" horiz-adv-x="616" >
<font-face units-per-em="1000" ascent="800" descent="-200" />
<missing-glyph horiz-adv-x="237" />
<glyph unicode=" "  horiz-adv-x="237" />
<glyph unicode="&#x09;" horiz-adv-x="237" />
<glyph unicode="&#xa0;" horiz-adv-x="237" />
<glyph unicode="&#x10d0;" horiz-adv-x="614" d="M567 340q-14 45 -34.5 79.5t-54.5 83.5q-44 63 -66.5 108.5t-23.5 102.5h-172q0 -62 14 -110t34.5 -83t53.5 -81q43 -60 65 -103q21 -45 21 -106v-59l-24 -33q-24 -33 -75 -33q-53 0 -78 35t-25 96q0 59 21 112l-145 51q-45 -80 -45 -163q0 -76 32.5 -134t94.5 -89.5 t145 -32.5q83 1 145.5 32t96.5 90t34 138v54z" />
<glyph unicode="&#x10d1;" horiz-adv-x="623" d="M394 521q14 27 14 50v32l-12 19q-12 20 -34 42q-15 14 -22.5 25t-8.5 25h-162q0 -38 12 -58t33 -40q18 -16 25.5 -28.5t7.5 -32.5q0 -19 -4 -32q-101 -18 -155.5 -88.5t-54.5 -177.5q0 -130 73 -202.5t206 -73.5q88 1 150.5 34.5t95 95.5t32.5 143q0 104 -51 175l-52 71z M312 105h-54l-25 39q-25 38 -25 116q0 76 25 115t79 39q55 0 78.5 -39t23.5 -117v-153h-102z" />
<glyph unicode="&#x10d2;" horiz-adv-x="619" d="M506 495.5q20 30.5 20 74.5q0 46 -26 83l-27 37l-50 21q-50 20 -116 20t-117 -20t-79.5 -55t-28.5 -77q0 -35 15 -66l144 38q-3 11 -3 24q0 45 67 45q29 0 44 -11.5t15 -30.5q0 -18 -10 -30t-34.5 -25.5t-77.5 -36.5q-107 -43 -158 -102.5t-51 -151.5q0 -73 33.5 -130 t96.5 -88.5t147 -32.5q85 1 147.5 33.5t95.5 89.5t33 129q0 70 -39 121t-105 85l44 26zM328 388q40 -32 62 -68q23 -37 23 -85v-129h-105q-51 0 -76.5 31.5t-25.5 88.5t26 94l26 37z" />
<glyph unicode="&#x10d3;" horiz-adv-x="867" d="M812.5 613q-28.5 55 -84.5 86.5t-136 31.5h-108l-67 -61q-67 61 -159 61q-65 0 -116 -27q-51 -28 -81 -85t-30 -139q0 -115 60.5 -189t160.5 -119q-76 0 -138 -25l44 -116q89 54 186 55q61 -1 106.5 -22.5t64.5 -63.5h167q-6 59 -45 99.5t-89.5 65.5t-126.5 51 q-102 36 -158.5 99.5t-56.5 167.5q0 66 23 97t63 31q35 0 68 -26q-18 -46 -18 -97q0 -71 29 -126.5t85.5 -87t135.5 -31.5q120 0 184.5 66t65.5 178l-1 71zM506 360v126q0 66 21 98t65 32q87 0 87 -129q0 -127 -87 -127h-86z" />
<glyph unicode="&#x10d4;" horiz-adv-x="592" d="M289 106q-43 0 -65 29.5t-22 77.5q0 47 13 80l-147 44q-34 -62 -34 -127q0 -64 31 -116.5t88.5 -82t135.5 -30.5q83 1 140.5 31t87.5 82t30 119v299q0 67 -31.5 116.5t-87.5 76t-130 26.5q-73 0 -129.5 -24.5t-87 -69t-30.5 -101.5q0 -45 22 -93l157 28q-11 31 -11 62 q0 32 20.5 53.5t58.5 21.5t58.5 -23.5t20.5 -67.5v-411h-88z" />
<glyph unicode="&#x10d5;" horiz-adv-x="593" d="M518.5 325q-40.5 46 -115.5 58q69 16 103 56l34 40v60q0 52 -31 96t-87.5 70t-130.5 26q-76 0 -132 -24t-86 -66t-30 -94q0 -40 18 -81l156 29q-6 21 -6 38q0 37 20 57.5t60 20.5q36 0 56.5 -23t20.5 -62q0 -40 -21 -61.5t-59 -21.5h-21l-20 -118h39q96 -1 96 -113 q0 -48 -22 -77t-67 -29q-49 0 -71 27t-22 71q0 37 11 66l-148 41q-29 -53 -29 -111q0 -61 30.5 -110.5t88.5 -78.5t140 -30q82 1 142 30.5t92 80.5t32 114v73z" />
<glyph unicode="&#x10d6;" horiz-adv-x="682" d="M553.5 452q-46.5 30 -103.5 30q-14 0 -22 -1q29 43 29 93q0 44 -26.5 80t-76.5 56.5t-116 20.5t-116 -23t-76.5 -65t-26.5 -94q0 -109 131 -182q-36 -59 -36 -126q0 -121 73.5 -189.5t196.5 -69.5q82 1 143 32q61 32 95 91l33 58v78q0 71 -27 126l-28 55zM293 308.5 q7 27.5 26 55.5q30 13 65 13q99 0 99 -136q0 -64 -25 -99.5t-74 -35.5h-48l-25 35q-25 34 -25 100v40zM292 607q18 -16 18 -43q0 -26 -16 -49.5t-61 -59.5q-30 17 -47 41.5t-17 56.5t19 52l18 18h36h32z" />
<glyph unicode="&#x10d7;" horiz-adv-x="972" d="M690 731h-105l-73 -70q-66 70 -191 70q-137 0 -207 -89.5t-70 -286.5q0 -195 70 -284t207 -90q135 1 206 88.5t71 284.5q0 130 -31 217q38 37 87 37q48 0 74.5 -48.5t26.5 -164.5q0 -123 -19 -214t-58 -181h169q37 86 59 178.5t22 224.5q0 168 -63 248l-63 80h-112z M321 608q37 0 59 -24t32 -79t10 -151q0 -94 -10 -148t-32 -77t-59 -23t-58.5 22t-31.5 76q-11 54 -11 151v99l11 55q10 54 32 77l21 22h37z" />
<glyph unicode="&#x10d8;" horiz-adv-x="638" d="M63 177q19 -96 51 -177h162q-29 90 -44 183t-15 212q0 116 23.5 164.5t78.5 48.5q54 0 77.5 -50.5t23.5 -162.5q0 -120 -14.5 -213t-41.5 -182h161q68 168 68 399q0 171 -71.5 251.5t-202.5 80.5q-275 0 -275 -332v-127z" />
<glyph unicode="&#x10d9;" horiz-adv-x="572" d="M371 414q137 35 137 156q0 71 -51 144h-155l36 -75v-69q0 -94 -85 -94h-9l-19 -122h37q50 0 77 -33t27 -93q0 -122 -89 -122q-47 0 -70.5 28.5t-23.5 75.5q0 40 14 75l-148 43q-30 -56 -30 -121q0 -63 30 -114.5t89 -81t139 -30.5q83 1 143 31.5t91 84.5t31 121 q0 83 -47 133l-46 51z" />
<glyph unicode="&#x10da;" horiz-adv-x="1111" d="M278 610h28l15 -17q15 -17 15 -58v-160h159v159q0 38 16.5 57t44.5 19t43.5 -19t15.5 -57v-159h159v159q0 38 16 57t43 19q33 0 50 -29t17 -101q0 -57 -11 -99.5t-39 -92.5l145 -68q82 122 82 259q0 126 -59.5 189t-160.5 63q-67 0 -108.5 -30.5t-52.5 -87.5 q-21 118 -141 118q-60 0 -96 -29.5t-46 -88.5q-27 118 -166 118q-99 0 -156 -60.5t-57 -183.5q0 -85 36 -143.5t88 -93t126 -67.5q-36 0 -73.5 -7.5t-65.5 -19.5l44 -113q111 57 228 57q77 0 128.5 -26t71.5 -74h173q-12 94 -90.5 148t-220.5 90q-88 23 -144.5 50.5t-90 77 t-33.5 126.5v118h67z" />
<glyph unicode="&#x10db;" d="M570 502q0 106 -67 167.5t-198 61.5q-77 0 -134.5 -22t-87 -60t-29.5 -85q0 -13 4 -25l161 12v6q0 27 23 42.5t66 15.5q93 0 93 -90v-67q-24 21 -59.5 33.5t-76.5 12.5q-67 0 -120 -33t-82.5 -90t-29.5 -128q0 -122 70.5 -196.5t202.5 -75.5q130 1 197 71.5t67 194.5v255 zM401 247q0 -142 -96 -142q-47 0 -72 35.5t-25 106.5q0 69 26.5 104t73.5 35q52 0 93 -38v-101z" />
<glyph unicode="&#x10dc;" d="M357 509q-43 0 -80.5 -13t-61.5 -33v73q0 34 18 49.5t54 16.5q24 -1 46 -4t29 -4q36 -7 64 -7q60 0 102 20l-18 120q-46 -13 -96 -13h-20l-48 6q-65 7 -95 7q-90 0 -147.5 -50t-57.5 -157v-271q0 -125 67.5 -196t197.5 -72q131 1 201.5 76.5t70.5 200.5q0 73 -28.5 130 t-79.5 89l-51 32h-67zM358 105h-47q-51 0 -73.5 38t-22.5 106v103q20 18 45 28t53 10q47 0 71 -34t24 -105q0 -73 -25 -109z" />
<glyph unicode="&#x10dd;" horiz-adv-x="908" d="M863 403q0 168 -60.5 248t-171.5 80q-142 0 -178 -127q-17 63 -60.5 95t-108.5 32q-117 0 -178.5 -79t-61.5 -249q0 -131 22.5 -223.5t60.5 -179.5h165q-38 90 -56.5 181t-18.5 214q0 79 8.5 125t27.5 67t52 21q66 0 66 -96v-302h167v302q0 51 18 73.5t52 22.5 q42 0 62.5 -47.5t20.5 -165.5q0 -122 -18.5 -212.5t-54.5 -182.5h165l37 85l22 93l21 93v132z" />
<glyph unicode="&#x10de;" horiz-adv-x="572" d="M381 387q133 20 133 114q0 45 -26 72.5t-74 57.5q-37 23 -56 41l-19 17l-4 25h-166q1 -44 17 -73t37.5 -44.5t55.5 -34.5q33 -16 49 -30t16 -37q0 -44 -69 -44h-47l-20 -119h49q54 0 79 -29t26 -86q-1 -54 -23.5 -82.5t-65.5 -28.5q-46 0 -68 26.5t-22 69.5q0 35 11 64 l-148 40q-27 -51 -27 -108q0 -60 29.5 -109t87.5 -78t137 -30q82 1 142 30.5t91 81.5t31 117q0 75 -42 120l-41 45z" />
<glyph unicode="&#x10df;" horiz-adv-x="620" d="M564 714h-169l-315 -60l24 -108q38 0 64 -16.5t26 -46.5q0 -22 -14 -32.5t-39 -10.5q-31 0 -59 15l-48 -87q52 -40 135 -40q74 0 119 36q46 36 46 94v46l-29 31q-28 30 -77 41l167 31v-399q-1 -102 -88 -102q-45 0 -67 24.5t-22 62.5q0 26 8 50l-148 37q-23 -43 -23 -94 q0 -54 29 -100.5t86.5 -75t136.5 -29.5q121 1 189 63.5t68 174.5v495z" />
<glyph unicode="&#x10e0;" horiz-adv-x="842" d="M591 505q-68 0 -112 -30.5t-58 -90.5q-12 60 -48.5 90.5t-89.5 30.5q-59 0 -98 -34q19 37 65.5 58t144.5 30q80 7 139 24.5t92 40.5l-54 108l-32 -14l-51 -11q-51 -11 -137 -24q-126 -19 -195.5 -68t-96 -123t-26.5 -182q0 -99 17.5 -172.5t47.5 -137.5h159 q-28 73 -41.5 129.5t-13.5 123.5q0 66 19 97t57 31q28 0 45.5 -19.5t17.5 -63.5v-159h159v159q0 83 62 83q76 0 76 -129q0 -64 -13.5 -120t-41.5 -132h159q30 66 47 126t18 136q-1 122 -59 182l-59 61h-99z" />
<glyph unicode="&#x10e1;" d="M569.5 315.5q-13.5 37.5 -37.5 83.5q-19 33 -29 57.5t-12 55.5h-168q0 -48 11 -80.5t33 -73.5q20 -36 30 -64.5t10 -69.5q0 -57 -24 -87l-23 -31h-47q-98 0 -98 129v479h-169v-486q0 -117 68 -181.5t199 -65.5q82 1 143 30.5t94 84.5t33 128v54z" />
<glyph unicode="&#x10e2;" horiz-adv-x="777" d="M743 338q0 144 -76 236l-76 90l-136 22l6 46h-148l6 -46q-136 -23 -210.5 -114.5t-74.5 -233.5q0 -109 42.5 -189.5t122 -123t189.5 -43.5q110 1 190 44.5t122 123.5l43 81v107zM569 338q0 -232 -181 -232q-87 0 -134 56.5t-47 175.5q0 99 28.5 153.5t85.5 80.5 q-10 -44 -10 -99v-177h154v180q-1 60 -12 97l58 -26l29 -55l29 -55v-99z" />
<glyph unicode="&#x10e3;" horiz-adv-x="648" d="M433 223q0 -56 -23.5 -86.5t-71.5 -30.5q-49 0 -72.5 29.5t-23.5 79.5q0 41 15 81l-147 44q-35 -64 -35 -128q0 -66 31.5 -118t91 -82t140.5 -31q84 1 143.5 30.5t89.5 81.5t31 118v337q-1 85 -50 135q-50 48 -134 48h-57l-41 -24q-40 -24 -56 -73q-13 48 -44 71t-68 23 q-10 0 -22.5 -1.5t-17.5 -1.5q-15 -3 -30 -3q-21 0 -41 6l-22 -118q24 -18 60 -18q11 0 29 2q17 2 27 2q42 0 42 -49v-129h155v126q0 64 51 64q50 0 50 -67v-318z" />
<glyph unicode="&#x10e4;" horiz-adv-x="835" d="M396 -19h89q89 1 158.5 27t108.5 75t39 117q0 61 -35 99t-103 48q73 16 110.5 58t37.5 118q0 59 -27 106.5t-76 75t-110 27.5q-95 0 -162 -56q-65 56 -164 56q-76 0 -131 -31t-83.5 -84.5t-28.5 -118.5q0 -107 64.5 -170.5t178.5 -63.5q113 0 177 62.5t64 168.5 q0 52 -18 96q33 20 70 20q38 0 59.5 -25.5t22.5 -75.5q-1 -53 -22.5 -78t-60.5 -25h-12l-20 -120h17q37 0 56.5 -19.5t19.5 -55.5q0 -50 -35 -78t-97 -28q-58 0 -92.5 20.5t-34.5 58.5v9l-174 16q-3 -13 -3 -30q0 -61 39 -106q40 -45 109 -69zM341 557v-62q0 -115 -79 -115 q-82 0 -82 117q0 118 81 118q40 0 60 -29z" />
<glyph unicode="&#x10e5;" horiz-adv-x="591" d="M366 574q-25 20 -60 33t-73 13q-52 0 -94 -23t-66 -63.5t-24 -89.5q0 -47 24 -92l143 29q-8 27 -8 49q0 29 18 47.5t55 19.5q46 -1 85 -33v-258q0 -100 -84 -100q-43 0 -63.5 24t-20.5 60q0 21 6 46l-148 37q-22 -43 -22 -89q0 -53 29 -99.5t85 -74.5t134 -29 q120 1 186.5 63.5t66.5 164.5v505h-169v-140z" />
<glyph unicode="&#x10e6;" horiz-adv-x="845" d="M587 731q-136 0 -166 -122q-31 122 -170 122q-97 0 -157 -63.5t-60 -190.5q0 -109 58.5 -184.5t152.5 -113.5q-37 0 -72.5 -7t-61.5 -17l44 -113q86 51 180 51q55 0 98 -26t58 -67h172q-7 85 -78 140l-71 54l-110 38q-99 35 -146 89.5t-47 149.5q0 70 18 103t55 33 q59 0 59 -78v-165h159v165q0 78 60 78q71 0 72 -127q-1 -55 -10.5 -95t-32.5 -81l141 -68q38 57 58.5 115.5t20.5 127.5q0 125 -61 188l-61 64h-102z" />
<glyph unicode="&#x10e7;" horiz-adv-x="603" d="M546 715h-169v-248q-20 -16 -39 -23l-21 -7h-25q-87 0 -87 110q0 81 36 168h-158q-49 -87 -49 -181q0 -68 27 -118t73.5 -77t106.5 -27q40 0 72.5 12t63.5 34v-147q0 -52 -21.5 -78.5t-67.5 -26.5q-44 0 -65 24t-21 60q0 21 6 46l-148 37q-22 -43 -22 -89q0 -53 29 -99.5 t85.5 -74.5t135.5 -29q79 1 137 29.5t89.5 81t31.5 121.5v502z" />
<glyph unicode="&#x10e8;" horiz-adv-x="626" d="M246 650q-12 42 -43.5 61.5t-74.5 19.5q-51 0 -90 -20l32 -106q22 10 47 10q24 0 37.5 -12.5t13.5 -36.5v-25h147v28q0 21 13 33.5t35 12.5q47 0 47 -55v-117q-24 20 -60.5 33t-78.5 13q-67 0 -119 -32t-81 -88.5t-29 -128.5q0 -118 70 -188l69 -71h130q130 1 200 71 t70 191v302q0 88 -52.5 137t-139.5 49h-110zM314 105q-46 0 -71.5 34t-25.5 99t26 99.5t71 34.5q55 0 96 -39v-228h-96z" />
<glyph unicode="&#x10e9;" horiz-adv-x="620" d="M391 451q59 19 91 49q31 29 31 78v43l-27 35q-27 35 -76 55t-113 20q-111 0 -175.5 -55.5t-64.5 -150.5v-525h169v336q48 29 95 29q46 0 68 -28.5t22 -89.5q0 -115 -40 -247h166q49 138 49 257q0 93 -43 145t-119 52h-18zM296 615q26 0 41.5 -13.5t15.5 -39.5 q0 -34 -25 -56.5t-81 -47.5l-21 -10v167h70z" />
<glyph unicode="&#x10ea;" horiz-adv-x="681" d="M564 622q-27 27 -41 46.5t-16 45.5h-155q0 -50 16.5 -77t47.5 -56q23 -21 33.5 -36.5t10.5 -37.5q0 -25 -19.5 -39.5t-57.5 -14.5h-47l-20 -122h45q54 0 82 -29t28 -80q0 -54 -29 -85t-82 -31q-76 0 -114.5 68.5t-38.5 196.5q0 98 18 178t52 165h-163q-36 -71 -58 -154.5 t-22 -189.5q0 -186 80.5 -287t246.5 -102q87 1 152 31t99.5 83.5t34.5 121.5q0 73 -40 119t-109 58q129 24 129 117q0 34 -15 58l-17 23z" />
<glyph unicode="&#x10eb;" horiz-adv-x="626" d="M570 714h-169v-231l-24 21l-36 12q-36 12 -78 12q-67 0 -119.5 -34t-81.5 -94t-29 -138q0 -129 70 -204.5t202 -76.5q131 1 198 72.5t67 201.5v459zM304 105q-96 0 -96 150q0 78 26.5 114.5t73.5 36.5q57 0 93 -38v-113q0 -72 -22 -111l-23 -39h-52z" />
<glyph unicode="&#x10ec;" horiz-adv-x="614" d="M543.5 374q-27.5 54 -78 84.5t-117.5 30.5q-44 0 -81.5 -13.5t-63.5 -33.5v118q0 55 48 55q22 0 34.5 -12t12.5 -33v-29h148v26q0 48 49 48h27l22 -10l32 106q-38 20 -90 20q-94 0 -118 -81q-33 81 -143 81q-87 0 -139.5 -49.5t-52.5 -137.5v-295q0 -125 68.5 -196 t198.5 -72q130 1 200.5 73t70.5 197v69zM299 105q-96 0 -96 132v95q22 18 48 30l27 10h28q46 0 67.5 -30.5t22.5 -92.5l-1 -144h-96z" />
<glyph unicode="&#x10ed;" horiz-adv-x="643" d="M642 625h-105v89h-169v-89h-126q-92 0 -147 -43t-55 -121q0 -50 25.5 -87t67.5 -56t92 -19q76 0 143 53v-148q0 -48 -22.5 -73t-63.5 -25q-43 0 -63.5 24t-20.5 60q0 21 6 46l-148 37q-22 -43 -22 -89q0 -53 29 -99.5t85 -74.5t134 -29q120 1 187.5 63t67.5 167v305h105 v109zM317 414h-60q-63 0 -63 51q0 25 18 38t49 13h107v-65z" />
<glyph unicode="&#x10ee;" horiz-adv-x="626" d="M565 402q-28 60 -80 93q-51 33 -119 33h-41l-37 -12q-37 -13 -62 -35v233h-169v-465q0 -126 67 -196.5t196 -71.5q132 1 202.5 77.5t70.5 206.5v77zM248 143q-22 38 -22 106v118q44 39 100 39q47 0 70 -34l22 -34v-73q0 -160 -97 -160h-51z" />
<glyph unicode="&#x10ef;" horiz-adv-x="584" d="M398 411l-28 11v87h171v116h-171v89h-167v-89h-172v-116h172v-153l56 -14q119 -31 119 -135q0 -47 -23 -74t-68 -27q-46 0 -67.5 25t-21.5 63q0 28 8 53l-147 37q-25 -43 -25 -95q0 -56 29.5 -103t87 -75.5t136.5 -29.5q85 1 145 29t92 79q31 49 31 113v74l-40 53l-41 53 z" />
<glyph unicode="&#x10f0;" horiz-adv-x="565" d="M391 -19l70 48q70 47 71 130q-1 55 -35.5 88.5t-99.5 43.5q60 8 88.5 30.5t28.5 63.5q0 86 -120 93q56 10 79.5 29.5t24.5 54.5q-1 38 -27 58.5t-76 39.5q-35 14 -54 25t-23 29h-158q2 -39 19.5 -63t40.5 -35.5t58 -23.5q31 -10 44.5 -18t13.5 -22q0 -27 -37 -27h-45 l-17 -105h57q22 0 35.5 -10t13.5 -29q0 -37 -49 -37h-65l-18 -104h69q40 0 59.5 -19t20.5 -52q-1 -32 -23 -50.5t-63 -18.5t-63.5 18t-22.5 48q0 13 3 27l-160 22q-12 -31 -12 -58q0 -50 31 -89.5t89 -62.5t132 -24h120z" />
<glyph unicode="&#x2000;" horiz-adv-x="525" />
<glyph unicode="&#x2001;" horiz-adv-x="1050" />
<glyph unicode="&#x2002;" horiz-adv-x="525" />
<glyph unicode="&#x2003;" horiz-adv-x="1050" />
<glyph unicode="&#x2004;" horiz-adv-x="350" />
<glyph unicode="&#x2005;" horiz-adv-x="262" />
<glyph unicode="&#x2006;" horiz-adv-x="175" />
<glyph unicode="&#x2007;" horiz-adv-x="175" />
<glyph unicode="&#x2008;" horiz-adv-x="131" />
<glyph unicode="&#x2009;" horiz-adv-x="210" />
<glyph unicode="&#x200a;" horiz-adv-x="58" />
<glyph unicode="&#x202f;" horiz-adv-x="210" />
<glyph unicode="&#x205f;" horiz-adv-x="262" />
<glyph unicode="&#x20be;" horiz-adv-x="681" d="M653 339q0 146 -55.5 229t-157.5 108v77h-70v-67h-34q-7 0 -11 -1v68h-70v-79q-51 -14 -92 -42t-70 -66.5t-44.5 -85.5t-15.5 -100q0 -187 155 -264l-99 -9l-5 -107h499l17 125h-200q-53 0 -92.5 19t-65.5 51t-39 76t-13 93q0 136 65 186v-211h70v238q5 1 24 1 q16 0 21 -1v-238h70v212q67 -52 67 -212h146z" />
<glyph unicode="&#x25fc;" horiz-adv-x="500" d="M0 0v0v0v0v0z" />
</font>
</defs>
</svg>
