<?xml version="1.0" standalone="no"?>
<!DOCTYPE svg PUBLIC "-//W3C//DTD SVG 1.1//EN" "http://www.w3.org/Graphics/SVG/1.1/DTD/svg11.dtd" >
<svg xmlns="http://www.w3.org/2000/svg" xmlns:xlink="http://www.w3.org/1999/xlink" version="1.1">
<metadata></metadata>
<defs>
<font id="63fontmt-light" horiz-adv-x="279" >
<font-face units-per-em="1000" ascent="800" descent="-200" />
<missing-glyph horiz-adv-x="500" />
<glyph unicode=" " />
<glyph unicode="&#xa0;" />
<glyph unicode="&#x10d0;" horiz-adv-x="581" d="M501 307q-14 44 -34.5 77.5t-54.5 79.5q-33 46 -52.5 77.5t-33 72.5t-13.5 92h-63q0 -57 14.5 -103t34.5 -79.5t55 -79.5q32 -44 51 -74.5t32 -71t13 -89.5q0 -79 -42 -124t-120 -45q-76 0 -117 44t-41 116q0 61 27 116l-53 18q-38 -66 -38 -139q0 -61 27 -108t77 -73 t118 -26q102 0 164.5 59.5t62.5 161.5q0 54 -14 98z" />
<glyph unicode="&#x10d1;" horiz-adv-x="612" d="M342 504q12 24 12 51q0 26 -10.5 44t-32.5 41q-18 19 -27 33t-9 33h-60q0 -30 11 -48t33 -40q18 -18 27 -31.5t9 -34.5q0 -28 -9 -47q-106 -7 -163 -77.5t-57 -181.5q0 -117 62 -187.5t178 -70.5t178 70.5t62 189.5q0 105 -53 174.5t-151 81.5zM438 400q44 -56 44 -152 q0 -99 -44.5 -154t-131.5 -55t-131 54.5t-44 152.5q0 97 44.5 153t130.5 56q87 0 132 -55z" />
<glyph unicode="&#x10d2;" horiz-adv-x="610" d="M435 21q54 34 81.5 88.5t27.5 116.5q0 85 -48 141.5t-126 95.5q54 28 78.5 57t24.5 72q0 56 -46 90.5t-126 34.5q-79 0 -127.5 -34.5t-48.5 -92.5q0 -27 13 -55l55 15q-8 18 -8 40q0 37 30 57.5t86 21.5q53 -1 81 -20.5t28 -54.5q0 -38 -30.5 -63t-111.5 -60 q-106 -46 -154 -103t-48 -149q0 -63 27.5 -115.5t81 -84t129.5 -31.5q77 0 131 33zM479 229q0 -84 -45 -136t-130 -53q-86 0 -129.5 49t-43.5 129q0 52 15 88t53 66.5t108 60.5l13 6q159 -73 159 -210z" />
<glyph unicode="&#x10d3;" horiz-adv-x="868" d="M816 463q0 114 -57 184t-164 70q-101 0 -158 -68q-64 68 -158 68q-61 0 -108 -29t-74.5 -84t-27.5 -130q0 -246 269 -340q-8 1 -25 1q-73 0 -138 -25l18 -52q37 17 76 27.5t88 10.5q64 0 117.5 -26t74.5 -70h65q-16 41 -45 68.5t-68.5 45.5t-108.5 44q-114 41 -186 112.5 t-72 201.5q-1 97 40.5 144.5t108.5 47.5q74 0 128 -52q-34 -63 -34 -152q0 -111 56 -179.5t163 -68.5q106 0 163 68.5t57 182.5zM595 666q79 0 118 -53.5t39 -149.5q0 -95 -39 -148t-117 -53t-116.5 52.5t-38.5 145.5q0 99 39 152.5t115 53.5z" />
<glyph unicode="&#x10d4;" horiz-adv-x="584" d="M429 212q-1 -84 -38.5 -128t-111.5 -44q-70 0 -108.5 41.5t-38.5 108.5q0 54 20 98l-54 16q-30 -54 -30 -119q0 -56 26 -101t73 -70.5t112 -25.5q102 0 156.5 59t54.5 160v300q0 99 -55 154.5t-150 55.5q-59 0 -105.5 -22.5t-72.5 -63t-26 -90.5q0 -41 23 -91l55 14 q-7 18 -10.5 35t-3.5 41q0 54 35.5 89t104.5 35q72 0 107.5 -41.5t36.5 -117.5v-293z" />
<glyph unicode="&#x10d5;" horiz-adv-x="571" d="M503 201q0 79 -42 123.5t-108 54.5q58 10 94.5 51t36.5 106q0 51 -24 92t-70.5 65t-109.5 24q-58 0 -104 -21.5t-71 -59.5t-25 -85q0 -37 19 -77l57 14q-13 30 -13 60q0 52 36 84t101 32q69 0 104.5 -35.5t35.5 -94.5q0 -63 -36 -96t-92 -33h-33l-9 -53h39q69 0 109 -40 t39 -113q0 -73 -42 -116t-115 -43q-72 0 -110.5 38t-38.5 101q0 43 15 82l-55 14q-23 -45 -23 -100q0 -53 25.5 -95.5t73 -67t113.5 -24.5q69 0 119.5 27.5t77 76t26.5 109.5z" />
<glyph unicode="&#x10d6;" horiz-adv-x="646" d="M58 638q-22 -37 -22 -82q0 -57 33.5 -100.5t98.5 -78.5q-38 -59 -38 -140q0 -113 60.5 -180t169.5 -67q108 0 169 69t61 186q0 72 -27 128.5t-74.5 87.5t-105.5 31q-9 0 -28 -2q31 41 31 90q0 38 -21.5 69.5t-60 49.5t-89.5 18q-54 0 -95 -21t-62 -58zM361 446 q78 0 121 -53.5t43 -147.5q0 -98 -43 -151.5t-122 -53.5t-121.5 52.5t-42.5 145.5q0 61 18.5 102.5t64.5 78.5l19 15q30 12 63 12zM98 556q0 52 32 82.5t85 31.5q51 -1 80.5 -25.5t30.5 -64.5q-1 -35 -19 -62t-65 -63q-23 -17 -44 -40q-100 52 -100 141z" />
<glyph unicode="&#x10d7;" horiz-adv-x="938" d="M781 0q79 178 79 406q0 157 -56 234t-161 77q-98 0 -168 -74q-57 74 -166 74q-119 0 -175 -87t-56 -280q0 -188 56 -275t175 -87q116 0 173.5 85t57.5 277q0 163 -40 251q60 63 139 63q77 0 117 -60t40 -199q0 -124 -20 -221t-58 -184h63zM161 535q17 69 53 99t95 30 q60 0 96.5 -32.5t53 -101t16.5 -179.5q0 -165 -39 -238t-127 -73q-60 0 -96 30.5t-53 98t-17 181.5q0 117 18 185z" />
<glyph unicode="&#x10d8;" horiz-adv-x="619" d="M135 638q-57 -80 -57 -235q0 -125 22.5 -223t58.5 -180h61q-40 91 -59 185.5t-19 215.5q0 136 40 199.5t128 63.5t128 -65.5t40 -196.5q0 -123 -20.5 -218t-58.5 -184h61q81 176 81 403q0 159 -60 236.5t-171 77.5q-118 0 -175 -79z" />
<glyph unicode="&#x10d9;" horiz-adv-x="529" d="M402 210q0 -78 -40.5 -124t-111.5 -46q-72 0 -111 40.5t-39 105.5q0 51 20 94l-55 16q-29 -52 -29 -114q0 -55 25.5 -99.5t74 -69.5t114.5 -25q67 0 116 28.5t75 79t26 114.5q0 88 -45.5 139t-115.5 59q55 11 90.5 51t35.5 103q0 74 -51 144h-62q51 -74 51 -146 q0 -62 -37 -95t-100 -33h-21l-7 -53h37q73 0 116.5 -44.5t43.5 -124.5z" />
<glyph unicode="&#x10da;" horiz-adv-x="1084" d="M367 523v-151h61v151q0 69 29.5 105t84.5 36q53 0 82.5 -35.5t29.5 -104.5v-152h62v151q0 69 29.5 105t83.5 36q59 0 90 -41t31 -137q0 -61 -13.5 -112t-43.5 -103l52 -25q34 59 52.5 115.5t18.5 128.5q0 113 -50 170t-134 57q-64 0 -101 -32.5t-45 -89.5 q-22 122 -146 122q-61 0 -97.5 -32.5t-44.5 -89.5q-22 122 -148 122q-82 0 -132 -62.5t-50 -173.5q0 -243 282 -324q-84 3 -169 -31l18 -52q97 43 206 43q87 0 152 -31t88 -86h67q-16 49 -49.5 81t-86.5 54t-140 43q-302 76 -303 303q0 83 30 133t94 50q110 0 110 -141z" />
<glyph unicode="&#x10db;" horiz-adv-x="607" d="M456 56q57 68 57 182v282q0 93 -56 145t-163 52q-91 0 -146.5 -39t-55.5 -102q0 -14 3 -26l59 6q-3 10 -3 19q0 42 37.5 66.5t105.5 24.5q157 0 157 -148v-105q-28 38 -68.5 62.5t-95.5 24.5q-67 0 -117 -33.5t-77 -92.5t-27 -132q0 -114 58 -184t169 -70q106 0 163 68z M451 353v-115q0 -91 -39 -145t-119 -54q-81 0 -121.5 54t-40.5 149q0 96 43 151t118 55q51 0 91.5 -25.5t67.5 -69.5z" />
<glyph unicode="&#x10dc;" horiz-adv-x="607" d="M483 61q58 73 58 192q0 112 -53.5 181.5t-152.5 69.5q-58 0 -103.5 -24t-75.5 -66v148q0 52 23 77t71 25q29 0 77 -8q6 -1 28 -4t45 -3q60 0 101 20l-12 48q-41 -17 -90 -17q-24 0 -60 8q-58 9 -89 9q-74 0 -115 -38.5t-41 -118.5v-318q0 -119 56.5 -186.5t164.5 -67.5 q109 0 168 73zM438 402q38 -52 38 -149q0 -99 -41 -156.5t-119 -57.5q-81 0 -120.5 53.5t-39.5 150.5v118q70 92 171 92q73 0 111 -51z" />
<glyph unicode="&#x10dd;" horiz-adv-x="864" d="M585 665q66 0 101.5 -57.5t35.5 -204.5q0 -119 -20 -214.5t-57 -188.5h62q34 82 56.5 179.5t22.5 224.5q0 313 -199 313q-66 0 -104.5 -35.5t-49.5 -98.5q-13 63 -50.5 98.5t-103.5 35.5q-96 0 -148.5 -72t-52.5 -241q0 -127 23 -224.5t57 -179.5h61q-38 90 -57.5 185.5 t-19.5 216.5q0 99 15.5 156t46.5 81.5t79 24.5q118 0 118 -162v-272h62v271q0 83 32 123.5t90 40.5z" />
<glyph unicode="&#x10de;" horiz-adv-x="535" d="M467 195q0 79 -43 123.5t-107 52.5q122 21 122 110q0 31 -13.5 53t-32.5 37t-52 35q-43 26 -63.5 47t-20.5 53h-56q1 -36 15 -61t33 -39.5t50 -32.5q38 -22 57 -41t19 -52q0 -42 -33 -62.5t-91 -20.5h-41l-8 -52h45q72 0 113.5 -39t41.5 -111q0 -73 -40.5 -114 t-114.5 -41q-70 0 -108.5 38t-38.5 101q0 44 15 82l-54 15q-25 -48 -25 -100q0 -53 25.5 -96t72.5 -67.5t113 -24.5q104 0 162 57t58 150z" />
<glyph unicode="&#x10df;" horiz-adv-x="599" d="M437 46q58 59 58 166v494h-61l-328 -72l13 -53q146 -16 146 -106q0 -38 -23 -58t-63 -20q-28 0 -47.5 6.5t-37.5 18.5l-26 -38q46 -37 115 -37q64 0 103 34.5t39 91.5q-1 53 -38 85.5t-101 44.5l248 53v-448q0 -81 -40.5 -124.5t-114.5 -43.5q-68 0 -106 37t-38 96 q0 38 12 72l-55 15q-20 -41 -20 -90q0 -51 25 -92.5t71.5 -65.5t110.5 -24q100 0 158 58z" />
<glyph unicode="&#x10e0;" horiz-adv-x="828" d="M130 415q16 79 65 123.5t156 65.5q87 16 133 30.5t79 37.5l-24 46q-28 -18 -75 -31.5t-132 -32.5q-106 -24 -163 -66.5t-79 -112t-22 -181.5q0 -85 16.5 -154.5t45.5 -139.5h65q-32 77 -47 143.5t-15 137.5q0 83 35 126t100 43q51 0 83 -33.5t32 -98.5v-150h61v150 q0 66 32.5 99t86.5 33q61 0 96.5 -41t35.5 -130q0 -69 -16 -135.5t-47 -143.5h64q64 144 64 281q0 107 -52 164.5t-136 57.5q-67 0 -107 -32t-51 -88q-10 56 -48.5 88t-96.5 32q-51 0 -86 -23.5t-53 -64.5z" />
<glyph unicode="&#x10e1;" horiz-adv-x="598" d="M507 92q25 48 26 107q-1 57 -18 97t-48 86q-26 38 -38 63t-12 57h-61q0 -45 13.5 -75t41.5 -72t42.5 -75t14.5 -81q0 -70 -40.5 -114.5t-113.5 -44.5q-82 0 -120 47.5t-38 130.5v488h-62v-489q0 -107 55 -168t164 -61q69 0 118.5 28t75.5 76z" />
<glyph unicode="&#x10e2;" horiz-adv-x="730" d="M590 575q-72 88 -200 99l4 44h-60l3 -44q-125 -12 -197 -102t-72 -239q0 -109 37 -186.5t104 -117.5t156 -40q88 0 155.5 40.5t104.5 118.5t37 186q0 153 -72 241zM597 334q0 -148 -61.5 -221t-170.5 -73q-107 0 -170 73t-63 220q0 130 54 206t151 87q-3 -35 -3 -65v-229 h60v227q-1 45 -3 67q100 -10 153 -83.5t53 -208.5z" />
<glyph unicode="&#x10e3;" horiz-adv-x="605" d="M449 219q0 -88 -40 -133.5t-117 -45.5q-73 0 -112 41t-39 108q0 51 21 97l-55 17q-30 -54 -30 -119q0 -56 26 -101t74.5 -70t114.5 -25q103 0 161 60t58 165v335q0 86 -39 127.5t-108 41.5q-49 0 -81.5 -22t-43.5 -66q-17 88 -89 88q-14 0 -37 -4q-20 -4 -32 -4 q-15 0 -30 5l-15 -48q25 -12 52 -12q8 0 16.5 1.5t12.5 1.5q19 4 32 4q59 0 59 -89v-137h61v126q0 52 23.5 77.5t68.5 25.5q46 0 67 -27.5t21 -91.5v-326z" />
<glyph unicode="&#x10e4;" horiz-adv-x="800" d="M725 193q0 59 -33.5 96.5t-96.5 46.5q61 11 99 57t38 127q0 90 -51.5 144t-132.5 54q-91 0 -154 -67q-27 32 -66 49.5t-86 17.5q-97 0 -151.5 -65.5t-54.5 -171.5q0 -102 54.5 -166t151.5 -64q98 0 151.5 63t53.5 169q0 75 -30 132q55 51 127 51q57 0 91.5 -38t35.5 -111 q-1 -78 -38.5 -117t-93.5 -39h-29l-7 -53h33q61 0 92.5 -30t31.5 -84q0 -71 -52.5 -112.5t-146.5 -41.5q-84 0 -134.5 30.5t-50.5 85.5q0 11 1 15l-65 6q-3 -18 -3 -22q0 -49 29.5 -86.5t86 -59t136.5 -21.5q124 0 194 55.5t70 149.5zM137 348q-36 46 -36 133 q0 91 36.5 138.5t104.5 47.5t104.5 -47.5t36.5 -136.5q0 -88 -36.5 -134.5t-104.5 -46.5q-69 0 -105 46z" />
<glyph unicode="&#x10e5;" horiz-adv-x="579" d="M413 210q0 -86 -37 -128t-111 -42q-62 0 -98 36t-36 94q0 38 10 66l-56 14q-17 -40 -17 -82q0 -51 23.5 -91.5t68.5 -64.5t105 -24q102 0 156 56.5t54 159.5v502h-62v-188q-25 36 -66.5 58.5t-94.5 23.5q-74 -1 -123 -43.5t-49 -109.5q0 -40 20 -81l56 12q-13 35 -13 66 q0 47 30.5 75.5t85.5 28.5q49 0 88.5 -24t65.5 -66v-248z" />
<glyph unicode="&#x10e6;" horiz-adv-x="832" d="M663 622q35 -43 35 -136q0 -129 -60 -222l51 -25q35 52 55 112t20 139q0 109 -54 168t-140 59q-66 0 -106.5 -34t-48.5 -95q-9 62 -47.5 95.5t-103.5 33.5q-55 0 -99 -27t-70.5 -82.5t-26.5 -138.5q0 -239 250 -328l-22 1q-64 0 -139 -26l17 -52q82 39 162 39 q66 0 118 -29t69 -74h66q-15 58 -66.5 95t-137.5 67q-116 40 -183.5 112.5t-68.5 193.5q0 93 36 144.5t100 51.5q116 0 116 -148v-151h61v150q0 149 123 149q59 0 94 -42z" />
<glyph unicode="&#x10e7;" horiz-adv-x="595" d="M491 706h-60v-250q-60 -84 -157 -84q-68 0 -105 40.5t-37 114.5q0 50 9.5 90.5t29.5 88.5h-59q-44 -85 -44 -181q0 -90 52.5 -148t146.5 -58q96 0 164 78v-189q-1 -86 -38 -127t-115 -41q-67 0 -104.5 36t-37.5 94q0 38 11 66l-56 14q-18 -39 -18 -82q0 -51 24.5 -91.5 t70.5 -64.5t110 -24q104 0 158.5 56t54.5 157v505z" />
<glyph unicode="&#x10e8;" horiz-adv-x="609" d="M477 678q-38 39 -100 39q-44 0 -75 -20t-40 -62q-10 42 -37 62t-66 20q-46 0 -85 -23l18 -45q30 16 65 16q74 0 74 -83v-35h58v35q0 41 22.5 62.5t59.5 21.5q39 0 60.5 -25.5t21.5 -73.5v-171q-61 85 -168 85q-66 0 -115 -33.5t-75.5 -90t-26.5 -123.5q0 -70 26 -125.5 t76 -88t124 -32.5q105 0 163 68t58 175v333q0 75 -38 114zM453 232q0 -85 -40 -139t-119 -54t-120 53t-41 142q0 88 43 141.5t116 54.5q103 -1 161 -93v-105z" />
<glyph unicode="&#x10e9;" horiz-adv-x="597" d="M529 270q0 89 -45.5 137.5t-125.5 48.5q-24 0 -55 -9q69 28 103.5 62t34.5 85q0 55 -44.5 89t-113.5 34q-80 0 -129.5 -43.5t-49.5 -124.5v-549h62v355q49 28 88 42.5t86 14.5q61 0 92.5 -36t32.5 -108q-1 -65 -16 -129t-46 -139h63q28 66 45.5 131t17.5 139zM206 431 l-40 -20v138q0 59 31 88.5t86 29.5q44 0 70 -19.5t26 -55.5q0 -45 -40.5 -81t-132.5 -80z" />
<glyph unicode="&#x10ea;" horiz-adv-x="659" d="M540 404q34 27 34 74q0 38 -18 63t-55 57q-34 30 -51 53t-18 55h-57q1 -48 20.5 -75.5t55.5 -58.5q31 -26 45.5 -45.5t14.5 -50.5q0 -39 -34 -59t-95 -20h-59l-8 -52h56q77 0 116 -37t39 -106q0 -76 -45 -119t-129 -43q-105 0 -162.5 75.5t-57.5 226.5q0 105 20 186.5 t65 177.5h-62q-45 -89 -66 -173.5t-21 -192.5q0 -170 74.5 -261t209.5 -91q76 0 130 27t81.5 75.5t27.5 110.5q0 75 -38 117.5t-103 51.5q57 7 90 34z" />
<glyph unicode="&#x10eb;" horiz-adv-x="617" d="M451 706v-282q-59 85 -165 85q-67 0 -116.5 -35t-76.5 -95t-27 -132q0 -118 58 -188.5t169 -70.5q107 0 163.5 67.5t56.5 185.5v465h-62zM451 241q0 -94 -39 -148t-120 -54q-80 0 -120.5 54.5t-40.5 153.5q0 97 44 153.5t119 56.5q100 0 157 -94v-122z" />
<glyph unicode="&#x10ec;" horiz-adv-x="581" d="M66 237q0 -116 56.5 -182.5t164.5 -66.5q110 0 168 71t58 189q0 103 -54 168t-152 65q-58 0 -103 -23.5t-76 -65.5v175q0 49 22 74t61 25q37 0 58.5 -20.5t22.5 -61.5v-37h58v36q0 82 76 82q33 0 62 -15l19 44q-37 23 -84 23q-40 0 -67 -20t-37 -62q-9 42 -39.5 62 t-73.5 20q-64 0 -102 -38.5t-38 -115.5v-326zM411 383q37 -47 37 -135q0 -100 -40.5 -154.5t-120.5 -54.5q-81 0 -120 53t-39 146v98q65 93 173 94q72 -1 110 -47z" />
<glyph unicode="&#x10ed;" horiz-adv-x="606" d="M477 201v338h118v49h-118v118h-62v-117h-170q-79 0 -125 -36.5t-46 -102.5q0 -67 45.5 -103.5t118.5 -36.5q53 0 99 22.5t78 61.5v-186q0 -168 -150 -168q-62 0 -98 36t-36 94q0 38 10 66l-56 14q-17 -40 -17 -82q0 -51 23.5 -91.5t68.5 -64.5t105 -24q99 0 155.5 57 t56.5 156zM415 539v-89q-31 -40 -77.5 -64t-97.5 -24q-49 0 -76.5 22.5t-27.5 66.5q0 42 29.5 65t80.5 23h169z" />
<glyph unicode="&#x10ee;" horiz-adv-x="617" d="M498 440q-54 69 -155 69q-56 0 -100.5 -24t-76.5 -64v285h-62v-469q0 -114 57 -181.5t165 -67.5q109 0 167 73.5t58 195.5q0 114 -53 183zM335 457q74 0 112 -51t38 -149q0 -101 -40.5 -159.5t-117.5 -58.5q-81 0 -121 54.5t-40 144.5v127q70 92 169 92z" />
<glyph unicode="&#x10ef;" horiz-adv-x="561" d="M473 89q25 47 26 106q-1 77 -42.5 131.5t-118.5 83.5l-34 13v115h172v50h-172v118h-61v-118h-171v-50h171v-149l51 -17q64 -22 101.5 -65.5t37.5 -111.5q0 -72 -41.5 -113.5t-115.5 -41.5q-72 0 -111 38t-39 101q0 44 16 82l-55 15q-24 -46 -24 -101q0 -82 56.5 -134 t156.5 -53q70 0 120.5 27t76.5 74z" />
<glyph unicode="&#x10f0;" horiz-adv-x="544" d="M100 150q0 17 8 48l-56 14q-16 -36 -16 -67q0 -45 27 -80.5t76.5 -56t115.5 -20.5q101 0 161 43t60 119q0 52 -30 84t-89 40q47 7 75 31t28 68q0 42 -27.5 66t-75.5 29q89 14 89 77q0 39 -28 59t-81 41q-40 15 -60 27.5t-23 33.5h-58q4 -43 31.5 -63t79.5 -38 q40 -15 58.5 -27.5t18.5 -35.5q0 -51 -83 -51h-63l-8 -49h66q46 0 72.5 -18t27.5 -53q-1 -37 -28.5 -54.5t-73.5 -17.5h-80l-8 -51h79q63 0 94 -25.5t31 -72.5q0 -54 -39 -83t-116 -29q-74 0 -114.5 30t-40.5 82z" />
<glyph unicode="&#x2000;" horiz-adv-x="525" />
<glyph unicode="&#x2001;" horiz-adv-x="1050" />
<glyph unicode="&#x2002;" horiz-adv-x="525" />
<glyph unicode="&#x2003;" horiz-adv-x="1050" />
<glyph unicode="&#x2004;" horiz-adv-x="350" />
<glyph unicode="&#x2005;" horiz-adv-x="262" />
<glyph unicode="&#x2006;" horiz-adv-x="175" />
<glyph unicode="&#x2007;" horiz-adv-x="175" />
<glyph unicode="&#x2008;" horiz-adv-x="131" />
<glyph unicode="&#x2009;" horiz-adv-x="210" />
<glyph unicode="&#x200a;" horiz-adv-x="58" />
<glyph unicode="&#x202f;" horiz-adv-x="210" />
<glyph unicode="&#x205f;" horiz-adv-x="262" />
<glyph unicode="&#x20be;" horiz-adv-x="684" d="M438 610q61 -25 92.5 -91t31.5 -179l61 1q0 130 -48 212t-137 109v91h-48v-81q-21 3 -44 3q-28 0 -48 -4v82h-48v-94q-85 -30 -134.5 -107.5t-49.5 -185.5q0 -124 52 -205t136 -111l-133 -1l-5 -49h437l9 51h-171q-76 0 -136 38.5t-94 109t-34 162.5q0 93 32.5 155 t90.5 90v-266h48v281q27 5 49 5t43 -3v-283h48v270z" />
<glyph unicode="&#x25fc;" horiz-adv-x="500" d="M0 0v0v0v0v0z" />
</font>
</defs>
</svg>
